<?xml version="1.0" encoding="utf-8"?>
<!-- Generator: Adobe Illustrator 25.0.1, SVG Export Plug-In . SVG Version: 6.00 Build 0)  -->
<svg version="1.1" id="Layer_1" xmlns="http://www.w3.org/2000/svg" xmlns:xlink="http://www.w3.org/1999/xlink" x="0px" y="0px"
	 viewBox="0 0 1000 1000" style="enable-background:new 0 0 1000 1000;" xml:space="preserve">
<style type="text/css">
	.st0{fill:none;stroke:#000000;stroke-width:2;stroke-miterlimit:10;}
	.st1{fill:#FFFFFF;stroke:#6D6E71;stroke-width:2;stroke-miterlimit:10;}
	.st2{fill:#FFFFFF;stroke:#000000;stroke-width:2;stroke-miterlimit:10;}
	.st3{fill:none;}
	.st4{font-family:'MyriadPro-Regular';}
	.st5{font-size:21px;}
	.st6{font-size:18px;}
	.st7{font-size:20.3565px;}
	.st8{fill:none;stroke:#000000;stroke-width:2;stroke-miterlimit:10;stroke-dasharray:5.0589,5.0589;}
	.st9{fill:none;stroke:#000000;stroke-width:2;stroke-miterlimit:10;stroke-dasharray:4.8388,4.8388;}
	.st10{fill:none;stroke:#000000;stroke-width:2;stroke-miterlimit:10;stroke-dasharray:5.0498,5.0498;}
	.st11{font-size:17.7727px;}
	.st12{letter-spacing:12.77;}
	.st13{letter-spacing:11.79;}
	.st14{letter-spacing:-0.98;}
	.st15{font-size:18.4434px;}
	.st16{letter-spacing:4.14;}
	.st17{letter-spacing:11.38;}
	.st18{letter-spacing:3.1;}
	.st19{letter-spacing:12.41;}
</style>
<g>
	<g>
		<g>
			<line class="st0" x1="138.83" y1="503.13" x2="420.88" y2="144.33"/>
			<g>
				<polygon points="143.65,505.07 134.39,508.77 135.81,498.9 				"/>
			</g>
			<g>
				<polygon points="423.9,148.56 425.31,138.68 416.06,142.39 				"/>
			</g>
		</g>
	</g>
	<g>
		<g>
			<line class="st0" x1="468.75" y1="163.43" x2="468.75" y2="699.07"/>
			<g>
				<polygon points="463.76,164.89 468.75,156.25 473.74,164.89 				"/>
			</g>
			<g>
				<polygon points="463.76,697.61 468.75,706.25 473.74,697.61 				"/>
			</g>
		</g>
	</g>
	<rect x="218.75" y="181.25" class="st1" width="562.5" height="500"/>
	<g>
		<circle class="st2" cx="343.75" cy="306.25" r="62.5"/>
		<rect x="291.26" y="301" class="st3" width="104.99" height="15.17"/>
		<text transform="matrix(0.931 0 0 1 332.9966 315.9072)" class="st4 st5">VB</text>
	</g>
	<g>
		<circle class="st2" cx="593.75" cy="306.25" r="62.5"/>
		<rect x="541.26" y="298.66" class="st3" width="104.99" height="15.17"/>
		<text transform="matrix(0.931 0 0 1 583.6421 313.5727)" class="st4 st5">EB</text>
	</g>
	<g>
		<rect x="281.25" y="493.75" class="st2" width="125" height="125"/>
		<rect x="295.69" y="549.81" class="st3" width="95.21" height="12.89"/>
		<text transform="matrix(1 0 0 1 318.876 562.5865)" class="st4 st6">Dealer</text>
	</g>
	<g>
		<rect x="531.25" y="493.75" class="st2" width="125" height="125"/>
		<rect x="523.54" y="573.77" class="st3" width="95.21" height="13.23"/>
		<text transform="matrix(1 0 0 1 546.7271 586.5449)" class="st4 st6">Dealer</text>
		<line class="st0" x1="531.25" y1="493.75" x2="656.25" y2="618.75"/>
		<rect x="571.14" y="518.84" class="st3" width="95.21" height="25.48"/>
		<text transform="matrix(1 0 0 1 607.473 533.747)" class="st4 st5">PB</text>
	</g>
	<g>
		<g>
			<line class="st0" x1="343.75" y1="472.71" x2="343.75" y2="387.06"/>
			<g>
				<polygon points="348.74,471.25 343.75,479.88 338.76,471.25 				"/>
			</g>
			<g>
				<polygon points="348.74,388.52 343.75,379.88 338.76,388.52 				"/>
			</g>
		</g>
	</g>
	<g>
		<g>
			<line class="st0" x1="438.43" y1="568.75" x2="499.07" y2="568.75"/>
			<g>
				<polygon points="439.89,573.74 431.25,568.75 439.89,563.76 				"/>
			</g>
			<g>
				<polygon points="497.61,573.74 506.25,568.75 497.61,563.76 				"/>
			</g>
		</g>
	</g>
	<g>
		<circle class="st2" cx="468.75" cy="93.75" r="62.5"/>
		<rect x="416.26" y="87.25" class="st3" width="104.99" height="16"/>
		<text transform="matrix(0.9605 0 0 1 458.1533 101.7032)" class="st4 st7">LA</text>
	</g>
	<g>
		<circle class="st2" cx="468.75" cy="768.75" r="62.5"/>
		<rect x="421.87" y="761.23" class="st3" width="93.77" height="15.04"/>
		<text transform="matrix(0.931 0 0 1 450.3911 776.1422)" class="st4 st5">MBP</text>
	</g>
	<g>
		<g>
			<line class="st0" x1="438.43" y1="543.75" x2="440.93" y2="543.75"/>
			<line class="st8" x1="445.99" y1="543.75" x2="494.04" y2="543.75"/>
			<line class="st0" x1="496.57" y1="543.75" x2="499.07" y2="543.75"/>
			<g>
				<polygon points="439.89,548.74 431.25,543.75 439.89,538.76 				"/>
			</g>
			<g>
				<polygon points="497.61,548.74 506.25,543.75 497.61,538.76 				"/>
			</g>
		</g>
	</g>
	<g>
		<g>
			<line class="st0" x1="593.75" y1="472.71" x2="593.75" y2="387.06"/>
			<g>
				<polygon points="598.74,471.25 593.75,479.88 588.76,471.25 				"/>
			</g>
			<g>
				<polygon points="598.74,388.52 593.75,379.88 588.76,388.52 				"/>
			</g>
		</g>
	</g>
	<g>
		<g>
			<line class="st0" x1="420.79" y1="479.21" x2="516.71" y2="383.29"/>
			<g>
				<polygon points="425.35,481.7 415.72,484.28 418.3,474.65 				"/>
			</g>
			<g>
				<polygon points="519.2,387.85 521.78,378.22 512.15,380.8 				"/>
			</g>
		</g>
	</g>
	<g>
		<g>
			<line class="st0" x1="420.79" y1="383.29" x2="422.56" y2="385.06"/>
			<line class="st9" x1="425.98" y1="388.48" x2="513.23" y2="475.73"/>
			<line class="st0" x1="514.94" y1="477.44" x2="516.71" y2="479.21"/>
			<g>
				<polygon points="418.3,387.85 415.72,378.22 425.35,380.8 				"/>
			</g>
			<g>
				<polygon points="512.15,481.7 521.78,484.28 519.2,474.65 				"/>
			</g>
		</g>
	</g>
	<g>
		<circle class="st2" cx="93.75" cy="306.25" r="62.5"/>
		<rect x="41.26" y="298.33" class="st3" width="104.99" height="15.83"/>
		<text transform="matrix(0.931 0 0 1 82.5078 313.2444)" class="st4 st5">RA</text>
	</g>
	<g>
		<circle class="st2" cx="93.75" cy="556.25" r="62.5"/>
		<rect x="41.26" y="548.38" class="st3" width="104.99" height="15.74"/>
		<text transform="matrix(0.931 0 0 1 78.4316 563.29)" class="st4 st5">SBP</text>
	</g>
	<g>
		<path class="st2" d="M831.75,456.25h-101c-6.6,0-12-5.4-12-12v-26c0-6.6,5.4-12,12-12h101c6.6,0,12,5.4,12,12v26
			C843.75,450.85,838.35,456.25,831.75,456.25z"/>
		<rect x="728.76" y="422.92" class="st3" width="104.99" height="16.67"/>
		<text transform="matrix(0.931 0 0 1 766.4297 437.825)" class="st4 st5">PTF</text>
	</g>
	<g>
		<path class="st2" d="M144.25,118.75h-101c-6.6,0-12-5.4-12-12v-26c0-6.6,5.4-12,12-12h101c6.6,0,12,5.4,12,12v26
			C156.25,113.35,150.85,118.75,144.25,118.75z"/>
		<rect x="41.26" y="88.16" class="st3" width="104.99" height="16.18"/>
		<text transform="matrix(0.931 0 0 1 73.3301 100.9413)" class="st4 st6">Client</text>
	</g>
	<g>
		<path class="st2" d="M956.75,581.25h-101c-6.6,0-12-5.4-12-12v-26c0-6.6,5.4-12,12-12h101c6.6,0,12,5.4,12,12v26
			C968.75,575.85,963.35,581.25,956.75,581.25z"/>
		<rect x="853.76" y="549.79" class="st3" width="104.99" height="12.91"/>
		<text transform="matrix(0.931 0 0 1 885.8301 562.5736)" class="st4 st6">Client</text>
	</g>
	<rect x="230" y="191.25" class="st3" width="151.9" height="18.39"/>
	<text transform="matrix(1 0 0 1 229.9999 204.0298)" class="st4 st6">Inter-Dealer Market</text>
	<g>
		<path class="st2" d="M331.75,793.75h-101c-6.6,0-12-5.4-12-12v-26c0-6.6,5.4-12,12-12h101c6.6,0,12,5.4,12,12v26
			C343.75,788.35,338.35,793.75,331.75,793.75z"/>
		<rect x="228.76" y="761.29" class="st3" width="104.99" height="14.92"/>
		<text transform="matrix(0.931 0 0 1 260.8301 774.0684)" class="st4 st6">Client</text>
	</g>
	<g>
		<path class="st2" d="M769.25,793.75h-101c-6.6,0-12-5.4-12-12v-26c0-6.6,5.4-12,12-12h101c6.6,0,12,5.4,12,12v26
			C781.25,788.35,775.85,793.75,769.25,793.75z"/>
		<rect x="666.26" y="760.83" class="st3" width="104.99" height="15.85"/>
		<text transform="matrix(0.931 0 0 1 703.9297 775.7348)" class="st4 st5">PTF</text>
	</g>
	<g>
		<g>
			<line class="st0" x1="525.79" y1="699.76" x2="569.17" y2="646.8"/>
			<g>
				<polygon points="530.57,701.79 521.24,705.31 522.86,695.47 				"/>
			</g>
			<g>
				<polygon points="572.11,651.09 573.72,641.25 564.39,644.77 				"/>
			</g>
		</g>
	</g>
	<g>
		<g>
			<line class="st0" x1="623.66" y1="646.48" x2="690.93" y2="718.19"/>
			<g>
				<polygon points="621.02,650.96 618.75,641.25 628.29,644.14 				"/>
			</g>
			<g>
				<polygon points="686.29,720.54 695.84,723.42 693.57,713.71 				"/>
			</g>
		</g>
	</g>
	<g>
		<g>
			<line class="st0" x1="563.43" y1="768.76" x2="624.07" y2="768.76"/>
			<g>
				<polygon points="564.89,773.73 556.25,768.76 564.89,763.77 				"/>
			</g>
			<g>
				<polygon points="622.61,773.73 631.25,768.76 622.61,763.77 				"/>
			</g>
		</g>
	</g>
	<g>
		<g>
			<line class="st0" x1="303.75" y1="648.43" x2="303.75" y2="650.93"/>
			<line class="st10" x1="303.75" y1="655.98" x2="303.75" y2="714.05"/>
			<line class="st0" x1="303.75" y1="716.57" x2="303.75" y2="719.07"/>
			<g>
				<polygon points="298.76,649.89 303.75,641.25 308.74,649.89 				"/>
			</g>
			<g>
				<polygon points="298.76,717.61 303.75,726.25 308.74,717.61 				"/>
			</g>
		</g>
	</g>
	<g>
		<g>
			<line class="st0" x1="364.68" y1="768.75" x2="385.32" y2="768.75"/>
			<g>
				<polygon points="366.13,773.74 357.5,768.75 366.14,763.76 				"/>
			</g>
			<g>
				<polygon points="383.86,773.74 392.5,768.76 383.87,763.77 				"/>
			</g>
		</g>
	</g>
	<g>
		<g>
			<line class="st0" x1="515.05" y1="163.85" x2="552.45" y2="228.65"/>
			<g>
				<polygon points="511.46,167.61 511.46,157.64 520.09,162.62 				"/>
			</g>
			<g>
				<polygon points="547.41,229.88 556.04,234.86 556.04,224.89 				"/>
			</g>
		</g>
	</g>
	<g>
		<g>
			<line class="st0" x1="677.12" y1="501.18" x2="706.97" y2="471.32"/>
			<g>
				<polygon points="681.68,503.67 672.05,506.25 674.63,496.62 				"/>
			</g>
			<g>
				<polygon points="709.47,475.88 712.05,466.25 702.41,468.83 				"/>
			</g>
		</g>
	</g>
	<g>
		<g>
			<line class="st0" x1="682.67" y1="556.25" x2="817.01" y2="556.25"/>
			<g>
				<polygon points="684.12,561.24 675.49,556.25 684.12,551.26 				"/>
			</g>
			<g>
				<polygon points="815.55,561.24 824.18,556.25 815.55,551.26 				"/>
			</g>
		</g>
	</g>
	<g>
		<g>
			<line class="st0" x1="848.75" y1="471.4" x2="888.06" y2="511.91"/>
			<g>
				<polygon points="846.19,475.92 843.75,466.25 853.34,468.97 				"/>
			</g>
			<g>
				<polygon points="883.47,514.33 893.06,517.06 890.63,507.39 				"/>
			</g>
		</g>
	</g>
	<g>
		<g>
			<line class="st0" x1="664.35" y1="365.73" x2="703.15" y2="396.77"/>
			<g>
				<polygon points="662.38,370.54 658.75,361.25 668.61,362.75 				"/>
			</g>
			<g>
				<polygon points="698.89,399.75 708.75,401.25 705.12,391.96 				"/>
			</g>
		</g>
	</g>
	<g>
		<g>
			<line class="st0" x1="167.98" y1="341.73" x2="302.56" y2="474.84"/>
			<g>
				<polygon points="165.51,346.3 162.88,336.68 172.53,339.21 				"/>
			</g>
			<g>
				<polygon points="298.02,477.36 307.66,479.88 305.03,470.27 				"/>
			</g>
		</g>
	</g>
	<g>
		<g>
			<line class="st0" x1="93.75" y1="148.43" x2="93.75" y2="219.07"/>
			<g>
				<polygon points="88.76,149.89 93.75,141.25 98.74,149.89 				"/>
			</g>
			<g>
				<polygon points="88.76,217.61 93.75,226.25 98.74,217.61 				"/>
			</g>
		</g>
	</g>
	<g>
		<g>
			<line class="st0" x1="261.57" y1="556.24" x2="175.93" y2="556.24"/>
			<g>
				<polygon points="260.11,551.27 268.75,556.24 260.11,561.23 				"/>
			</g>
			<g>
				<polygon points="177.39,551.27 168.75,556.24 177.39,561.23 				"/>
			</g>
		</g>
	</g>
	<g>
		<path class="st2" d="M144.25,793.71h-101c-6.6,0-12-5.4-12-12v-26c0-6.6,5.4-12,12-12h101c6.6,0,12,5.4,12,12v26
			C156.25,788.31,150.85,793.71,144.25,793.71z"/>
		<rect x="41.26" y="761.27" class="st3" width="104.99" height="14.95"/>
		<text transform="matrix(0.931 0 0 1 73.3301 774.053)" class="st4 st6">Client</text>
	</g>
	<g>
		<g>
			<line class="st0" x1="93.75" y1="648.09" x2="93.75" y2="719.41"/>
			<g>
				<polygon points="88.76,649.48 93.75,641.25 98.74,649.48 				"/>
			</g>
			<g>
				<polygon points="88.76,718.02 93.75,726.25 98.74,718.02 				"/>
			</g>
		</g>
	</g>
</g>
<g>
	<rect x="265.04" y="873.75" class="st2" width="450" height="95"/>
	<g>
		<rect x="276.38" y="881.25" class="st3" width="200" height="85"/>
		<text transform="matrix(1.0177 0 0 1 276.3821 893.8682)"><tspan x="0" y="0" class="st4 st11">EB</tspan><tspan x="18.38" y="0" class="st4 st11 st12">	</tspan><tspan x="35.55" y="0" class="st4 st11"> electronic broker</tspan><tspan x="0" y="21.33" class="st4 st11">LA</tspan><tspan x="19.27" y="21.33" class="st4 st11 st13">	</tspan><tspan x="35.55" y="21.33" class="st4 st11"> liquidity aggregator</tspan><tspan x="0" y="42.66" class="st4 st11">MBP</tspan><tspan x="33.38" y="42.66" class="st4 st11 st14">	</tspan><tspan x="35.55" y="42.66" class="st4 st11"> multi-bank platform</tspan><tspan x="0" y="63.98" class="st4 st11">PB</tspan><tspan x="19.09" y="63.98" class="st4 st11 st13">	</tspan><tspan x="35.55" y="63.98" class="st4 st11"> prime broker</tspan></text>
		<rect x="503.7" y="881.25" class="st3" width="200" height="85"/>
		<text transform="matrix(0.9667 0 0 1 503.7019 894.3458)"><tspan x="0" y="0" class="st4 st15">PTF</tspan><tspan x="27.96" y="0" class="st4 st15 st16">	</tspan><tspan x="36.89" y="0" class="st4 st15"> principal trading firm</tspan><tspan x="0" y="22.13" class="st4 st15">RA</tspan><tspan x="21.21" y="22.13" class="st4 st15 st17">	</tspan><tspan x="36.89" y="22.13" class="st4 st15"> retail aggregator</tspan><tspan x="0" y="44.26" class="st4 st15">SBP</tspan><tspan x="28.9" y="44.26" class="st4 st15 st18">	</tspan><tspan x="36.89" y="44.26" class="st4 st15"> single-bank platform</tspan><tspan x="0" y="66.4" class="st4 st15">VB</tspan><tspan x="20.29" y="66.4" class="st4 st15 st19">	</tspan><tspan x="36.89" y="66.4" class="st4 st15"> voice broker</tspan></text>
	</g>
</g>
</svg>
